<mxfile host="app.diagrams.net" modified="2023-08-28T02:14:01.087Z" agent="Mozilla/5.0 (Windows NT 10.0; Win64; x64) AppleWebKit/537.36 (KHTML, like Gecko) Chrome/116.0.0.0 Safari/537.36 Edg/116.0.1938.54" version="21.6.9" etag="0ENNTXxo_vERhBRROG-C" type="github">
  <diagram name="第 1 页" id="BnO7v0a0NeAxPuLIhtkJ">
    <mxGraphModel>
      <root>
        <mxCell id="0" />
        <mxCell id="1" parent="0" />
      </root>
    </mxGraphModel>
  </diagram>
</mxfile>
